<svg width="21" height="21" viewBox="0 0 21 21" fill="none" xmlns="http://www.w3.org/2000/svg">
<path d="M10.4018 1.90771C8.75371 1.92332 7.14724 2.4273 5.78557 3.35592C4.42389 4.28453 3.36816 5.59608 2.75188 7.1247C2.1356 8.65332 1.98644 10.3304 2.32328 11.9438C2.66012 13.5571 3.46782 15.0344 4.64424 16.1888C5.82066 17.3431 7.31297 18.1227 8.93245 18.4289C10.5519 18.7351 12.2259 18.5542 13.7425 17.9091C15.2592 17.264 16.5505 16.1836 17.4532 14.8046C18.3558 13.4256 18.8293 11.8099 18.8137 10.1618C18.7902 7.95252 17.8914 5.84279 16.3145 4.2954C14.7375 2.74801 12.6111 1.88932 10.4018 1.90771ZM13.599 13.3004C13.5224 13.3786 13.4311 13.4408 13.3304 13.4837C13.2297 13.5265 13.1216 13.5491 13.0122 13.5502C12.9027 13.5512 12.7942 13.5307 12.6927 13.4897C12.5912 13.4488 12.4988 13.3883 12.4207 13.3116L9.89712 10.8354C9.81899 10.7588 9.75672 10.6675 9.71387 10.5668C9.67103 10.4661 9.64845 10.358 9.64743 10.2486L9.60008 5.24879C9.59799 5.02779 9.68378 4.815 9.83857 4.65725C9.99336 4.4995 10.2045 4.4097 10.4255 4.4076C10.6465 4.40551 10.8593 4.4913 11.017 4.64609C11.1748 4.80088 11.2646 5.012 11.2667 5.23301L11.3108 9.88775L13.5879 12.1221C13.666 12.1987 13.7283 12.29 13.7711 12.3907C13.8139 12.4914 13.8365 12.5995 13.8376 12.709C13.8386 12.8184 13.8181 12.927 13.7771 13.0284C13.7362 13.1299 13.6757 13.2224 13.599 13.3004Z" fill="white"/>
</svg>
