<svg width="14" height="14" viewBox="0 0 14 14" fill="none" xmlns="http://www.w3.org/2000/svg">
<path d="M6.05867 9.20819C6.02696 9.17788 5.89154 9.0636 5.78003 8.957C5.07912 8.3325 3.92608 6.69698 3.57073 5.8386C3.5137 5.70826 3.39249 5.37854 3.38323 5.20185C3.38163 5.03247 3.4191 4.87063 3.49672 4.71581C3.60539 4.52269 3.7778 4.36697 3.98229 4.2806C4.12422 4.2249 4.5497 4.13644 4.55728 4.13637C5.02283 4.04753 5.78015 3.99392 6.61753 3.98599C7.41537 3.97843 8.14269 4.01798 8.61674 4.08262C8.6244 4.09046 9.15493 4.16987 9.33725 4.26049C9.67034 4.42673 9.8793 4.75563 9.88265 5.10969L9.88294 5.14029C9.877 5.37095 9.67577 5.85782 9.66819 5.85789C9.32817 6.67642 8.26174 8.29497 7.54911 8.94816C7.54911 8.94816 7.36613 9.13195 7.25151 9.21219C7.08694 9.33724 6.88223 9.40039 6.67695 9.40233C6.44784 9.4045 6.23378 9.3374 6.05867 9.20819" fill="#ADB3CC"/>
</svg>
