<svg width="19" height="21" viewBox="0 0 19 21" fill="none" xmlns="http://www.w3.org/2000/svg">
<path d="M17.6908 10.1246C16.9222 9.31436 16.5697 8.60923 16.5583 7.40572L16.5544 6.9965C16.5396 5.42817 16.1376 4.4214 15.2751 3.41899C13.9455 1.86214 11.7232 0.937276 9.55645 0.957796L9.46432 0.958669C7.34314 0.978758 5.20773 1.90146 3.88448 3.41972C2.99463 4.459 2.56671 5.51707 2.58198 7.12883L2.58585 7.53805C2.59725 8.74156 2.28097 9.45302 1.50504 10.2779C0.934128 10.8856 0.757188 11.6614 0.765122 12.4991C0.773065 13.3378 1.07977 14.1293 1.68631 14.7693C2.47731 15.5359 3.58865 16.0195 4.71993 16.0947C6.35825 16.251 7.99555 16.3002 9.65605 16.2845C11.3155 16.2687 12.9512 16.1452 14.5877 16.0013C15.7163 15.9047 16.8183 15.4001 17.5946 14.6186C18.1879 13.9673 18.4806 13.1701 18.4727 12.3314C18.4647 11.4937 18.2731 10.7214 17.6908 10.1246" fill="white"/>
<path opacity="0.4" d="M11.759 17.4482C11.2373 17.3508 8.06431 17.3809 7.54456 17.4881C7.10031 17.5869 6.62102 17.8115 6.62559 18.2941C6.65583 18.7542 6.95264 19.1578 7.36089 19.4116L7.35987 19.4126C7.88829 19.784 8.50652 20.0175 9.15228 20.0973C9.49638 20.1375 9.84627 20.1322 10.202 20.0874C10.8451 19.9954 11.4588 19.7502 11.9801 19.3688L11.979 19.3679C12.3824 19.1063 12.6715 18.6972 12.693 18.2366C12.6885 17.7541 12.205 17.5386 11.759 17.4482" fill="white"/>
</svg>
