<svg width="42" height="40" viewBox="0 0 42 40" fill="none" xmlns="http://www.w3.org/2000/svg">
<path d="M20.8954 0.650498C15.4252 0.702304 10.1985 2.80636 6.36506 6.49978C2.53166 10.1932 0.40559 15.1735 0.454567 20.345C0.503544 25.5165 2.72356 30.4555 6.62623 34.0757C10.5289 37.6959 15.7945 39.7006 21.2648 39.6487L20.8954 0.650498Z" fill="#4544DC"/>
<path d="M31.5779 39.5507C37.2735 39.4968 41.8494 35.088 41.7984 29.7035C41.7474 24.3189 37.0889 19.9976 31.3933 20.0516C25.6977 20.1055 21.1218 24.5143 21.1728 29.8988C21.2238 35.2834 25.8824 39.6047 31.5779 39.5507Z" fill="url(#paint0_linear_289_15)"/>
<defs>
<linearGradient id="paint0_linear_289_15" x1="41.7984" y1="29.7035" x2="21.1728" y2="29.8988" gradientUnits="userSpaceOnUse">
<stop stop-color="#FFAB6B"/>
<stop offset="1" stop-color="#4544DC"/>
</linearGradient>
</defs>
</svg>
